<?xml version="1.0" encoding="UTF-8"?>
<svg version="1.1" xmlns="http://www.w3.org/2000/svg" width="96" height="96">
<path d="M0 0 C-0.19921875 2.34375 -0.19921875 2.34375 -1 5 C-3.14453125 6.40625 -3.14453125 6.40625 -5.8125 7.5 C-9.99894981 9.40184434 -12.55519765 10.96076133 -15 15 C-16.19271837 18.57815512 -15.75517029 21.00229479 -15.4375 24.75 C-15.34325868 31.28630879 -15.34325868 31.28630879 -18.1171875 34.30078125 C-20.8125 36.0625 -20.8125 36.0625 -23.51953125 37.47265625 C-26.92433664 39.56915847 -28.33164425 42.1772116 -29.6875 45.875 C-30.48538117 51.30059194 -29.8839171 55.9254691 -28.4453125 61.1328125 C-27.89153786 63.45477985 -27.85149805 65.62396879 -28 68 C-35.59493671 67.11392405 -35.59493671 67.11392405 -38 66.4375 C-44.42258663 65.03255918 -49.23414249 65.9538866 -55 69 C-59.5843117 71.9851332 -61.53185872 75.24654273 -64 80 C-65.01320313 79.95359375 -66.02640625 79.9071875 -67.0703125 79.859375 C-68.42184532 79.82183242 -69.77341028 79.78543494 -71.125 79.75 C-71.79015625 79.71648437 -72.4553125 79.68296875 -73.140625 79.6484375 C-78.29127152 79.54744443 -81.07492888 80.72720017 -85 84 C-86.63798272 85.92730121 -86.63798272 85.92730121 -87.75 88 C-88.33007812 88.99 -88.33007812 88.99 -88.921875 90 C-89.98977215 91.98102659 -91.00803094 93.97999027 -92 96 C-93.32 96 -94.64 96 -96 96 C-96.81336915 76.88582493 -94.59007739 56.94802431 -82 41.5546875 C-80 40 -80 40 -76 40 C-75.93941406 40.63808594 -75.87882812 41.27617188 -75.81640625 41.93359375 C-75.73261719 42.75988281 -75.64882812 43.58617187 -75.5625 44.4375 C-75.48128906 45.26121094 -75.40007812 46.08492187 -75.31640625 46.93359375 C-75.21069185 48.98662025 -75.21069185 48.98662025 -74 50 C-70.5 50.16666667 -70.5 50.16666667 -67 50 C-65.77964368 49.00856029 -65.77964368 49.00856029 -65.9453125 47.07421875 C-66.24899499 41.72261561 -66.24899499 41.72261561 -69.5625 37.6875 C-70.366875 37.130625 -71.17125 36.57375 -72 36 C-72 34.68 -72 33.36 -72 32 C-71.05125 31.79375 -70.1025 31.5875 -69.125 31.375 C-65.70833333 30.29166667 -65.70833333 30.29166667 -64.625 26.875 C-64.315625 25.451875 -64.315625 25.451875 -64 24 C-61.6875 24.25 -61.6875 24.25 -59 25 C-58.5875 25.66 -58.175 26.32 -57.75 27 C-55.20601817 29.90740781 -52.68459309 29.70018862 -48.9609375 30.01953125 C-46.99541959 30.22876265 -46.99541959 30.22876265 -46 29 C-45.83333333 25.5 -45.83333333 25.5 -46 22 C-47.58272601 20.41727399 -49.38034003 20.65264253 -51.5625 20.4375 C-52.38878906 20.35371094 -53.21507812 20.26992188 -54.06640625 20.18359375 C-55.02353516 20.09271484 -55.02353516 20.09271484 -56 20 C-56 17.27855208 -55.51433838 15.5528767 -53.64453125 13.54296875 C-38.21093311 1.0710419 -18.96945414 -0.58668415 0 0 Z M-46 15 C-45.175 15.598125 -44.35 16.19625 -43.5 16.8125 C-40.74042152 19.53287992 -40.58064892 21.81937919 -40.5 25.625 C-40.55272256 30.43593345 -40.55272256 30.43593345 -42.40625 32.7734375 C-46.00389885 35.54221627 -49.62532469 35.37087806 -54 35 C-55.6744239 34.3530635 -57.34302621 33.69040574 -59 33 C-61.24240782 33.28739925 -61.24240782 33.28739925 -63 34 C-62.47731534 36.76276177 -61.89130413 39.3260876 -61 42 C-60.58808933 50.65012407 -60.58808933 50.65012407 -63 54 C-65.58753156 55.29376578 -67.54958985 55.16832397 -70.4375 55.1875 C-71.40558594 55.20167969 -72.37367187 55.21585938 -73.37109375 55.23046875 C-76 55 -76 55 -79 53 C-79.66 52.01 -80.32 51.02 -81 50 C-84.9602852 56.85129339 -87.63613291 63.38536221 -89.4375 71.0625 C-89.61313477 71.80040771 -89.78876953 72.53831543 -89.96972656 73.29858398 C-90.71290219 76.68159768 -91.1142842 78.65714739 -90 82 C-88.9171875 80.824375 -88.9171875 80.824375 -87.8125 79.625 C-84.20444323 76.25748035 -81.78238285 74.99127352 -76.80859375 75.015625 C-75.69613281 75.09296875 -74.58367187 75.1703125 -73.4375 75.25 C-70.04123285 75.37702689 -70.04123285 75.37702689 -67 75 C-64.41038912 72.40726463 -64.41038912 72.40726463 -63 69 C-56.31258786 62.4645745 -50.59366805 60.83083401 -41.5 60.8125 C-39.33295925 60.86030237 -37.16601109 60.91786194 -35 61 C-35.03480469 60.0821875 -35.06960937 59.164375 -35.10546875 58.21875 C-35.3523488 47.02685425 -34.26316546 41.02708962 -26.81640625 32.6640625 C-24.97286806 30.97514364 -23.2822931 29.9931737 -21 29 C-21.03480469 28.13117187 -21.06960937 27.26234375 -21.10546875 26.3671875 C-21.32459598 17.03862823 -20.11255646 12.1664455 -14 5 C-25.20653632 5 -36.45401759 9.48209109 -46 15 Z " fill="#000000" transform="translate(96,0)"/>
</svg>
